<?xml version="1.0" encoding="UTF-8" standalone="no"?>
<svg
   xmlns:dc="http://purl.org/dc/elements/1.1/"
   xmlns:cc="http://creativecommons.org/ns#"
   xmlns:rdf="http://www.w3.org/1999/02/22-rdf-syntax-ns#"
   xmlns:svg="http://www.w3.org/2000/svg"
   xmlns="http://www.w3.org/2000/svg"
   xmlns:xlink="http://www.w3.org/1999/xlink"
   xmlns:sodipodi="http://sodipodi.sourceforge.net/DTD/sodipodi-0.dtd"
   xmlns:inkscape="http://www.inkscape.org/namespaces/inkscape"
   width="205mm"
   height="141mm"
   viewBox="0 0 205 141"
   version="1.1"
   id="svg8"
   sodipodi:docname="SVGLogo.svg"
   inkscape:version="1.0 (4035a4fb49, 2020-05-01)">
  <defs
     id="defs2">
    <linearGradient
       inkscape:collect="always"
       id="linearGradient30">
      <stop
         style="stop-color:#2477cb;stop-opacity:1"
         offset="0"
         id="stop26" />
      <stop
         style="stop-color:#2b328c;stop-opacity:0.99607843"
         offset="1"
         id="stop28" />
    </linearGradient>
    <linearGradient
       inkscape:collect="always"
       xlink:href="#linearGradient30"
       id="linearGradient32"
       x1="107.65804"
       y1="66.602013"
       x2="107.20187"
       y2="286.47989"
       gradientUnits="userSpaceOnUse"
       gradientTransform="matrix(0.51359589,0,0,0.51359589,46.942739,-6.1860235)" />
  </defs>
  <sodipodi:namedview
     id="base"
     pagecolor="#ffffff"
     bordercolor="#666666"
     borderopacity="1.0"
     inkscape:pageopacity="0.0"
     inkscape:pageshadow="2"
     inkscape:zoom="0.94"
     inkscape:cx="269.01269"
     inkscape:cy="148.56876"
     inkscape:document-units="mm"
     inkscape:current-layer="layer1"
     inkscape:document-rotation="0"
     showgrid="false"
     inkscape:window-width="1920"
     inkscape:window-height="1051"
     inkscape:window-x="-9"
     inkscape:window-y="-9"
     inkscape:window-maximized="1" />
  <metadata
     id="metadata5">
    <rdf:RDF>
      <cc:Work
         rdf:about="">
        <dc:format>image/svg+xml</dc:format>
        <dc:type
           rdf:resource="http://purl.org/dc/dcmitype/StillImage" />
        <dc:title></dc:title>
      </cc:Work>
    </rdf:RDF>
  </metadata>
  <g
     inkscape:label="Layer 1"
     inkscape:groupmode="layer"
     id="layer1">
    <path
       style="fill:url(#linearGradient32);fill-opacity:1;stroke-width:0.181185"
       d="m 99.884559,140.32581 c -0.12082,-0.19348 -0.60924,-0.57214 -1.08541,-0.8415 -0.47614,-0.26934 -1.15108,-0.66825 -1.49986,-0.88643 -1.981398,-1.23945 -4.406356,-2.70243 -8.599058,-5.18786 -2.586976,-1.53353 -5.053356,-3.1208 -5.480858,-3.52723 l -0.777265,-0.73899 0.01483,-2.61294 c 0.0082,-1.43712 0.07449,-4.77358 0.147277,-7.41436 0.145913,-5.29208 0.202494,-5.56356 1.332433,-6.39252 0.323971,-0.23769 1.526677,-0.77859 2.672674,-1.20201 1.145996,-0.42343 3.510463,-1.32386 5.254366,-2.00094 5.895251,-2.28889 8.965082,-3.43202 9.829292,-3.66018 1.03439,-0.27308 1.56188,-0.15617 4.75612,1.05419 1.19582,0.4531 2.66342,1.00932 3.26134,1.23601 0.5979,0.22671 2.35087,0.90427 3.89548,1.5057 1.5446,0.60143 3.84631,1.48112 5.11491,1.95485 2.73634,1.02182 3.29641,1.47055 3.55782,2.85059 0.15544,0.82056 0.3919,7.27642 0.45583,12.44528 0.0241,1.94854 -0.18904,2.65142 -0.9817,3.23747 -0.52459,0.38784 -4.96178,3.09337 -6.51478,3.9723 -0.44765,0.25335 -1.22835,0.72575 -1.73487,1.04977 -0.50653,0.32402 -1.2002,0.74865 -1.54149,0.94361 -2.58105,1.47444 -6.47219,3.9104 -6.71929,4.20648 -0.27271,0.32677 -0.52672,0.36044 -2.71949,0.36044 -2.19808,0 -2.4387,-0.0321 -2.638341,-0.35173 z M 80.267886,109.74809 c -0.399243,-0.14594 -1.09201,-0.79878 -1.43641,-1.3536 -0.165587,-0.26679 -1.479662,-1.52409 -2.920149,-2.79401 -1.440496,-1.26992 -3.265114,-2.88615 -4.054724,-3.59162 -2.718394,-2.42872 -3.481632,-3.10436 -7.177691,-6.353868 -2.038988,-1.79264 -4.254805,-3.7805 -4.924032,-4.41745 -1.870401,-1.78021 -2.015028,-2.82458 -0.603372,-4.35697 0.640525,-0.69529 3.400006,-5.23163 6.567013,-10.79555 0.397055,-0.69757 1.181888,-2.06016 1.74407,-3.028 0.562181,-0.96782 0.978727,-1.8647 0.925668,-1.99304 -0.09968,-0.24107 -0.537174,-0.59454 -3.158748,-2.5521 -0.847041,-0.63249 -2.602819,-1.95942 -3.901726,-2.94873 -1.298915,-0.9893 -3.337244,-2.53215 -4.529636,-3.42855 -1.192384,-0.8964 -2.20874,-1.67578 -2.258571,-1.73196 -0.04982,-0.0562 -1.416583,-1.10295 -3.037239,-2.32617 -1.620656,-1.22323 -3.142596,-2.48219 -3.382092,-2.79768 -0.584839,-0.77043 -0.918584,-1.68991 -1.359122,-3.74437 -0.203001,-0.9467 -0.582189,-2.61814 -0.842636,-3.7143 -0.260456,-1.09617 -0.540381,-2.36873 -0.622056,-2.82792 -0.08168,-0.45917 -0.231197,-1.15221 -0.332277,-1.54008 -0.370587,-1.42206 -1.142911,-4.76249 -2.392439,-10.34767 -0.37849,-1.6918 -0.536731,-2.78749 -0.460927,-3.19155 0.09553,-0.50919 1.368063,-1.86166 7.378345,-7.841903 3.994603,-3.97462 8.049254,-8.02947 9.010346,-9.01075 0.961092,-0.98128 1.967602,-1.89853 2.236698,-2.03833 0.838193,-0.43546 1.663449,-0.30032 3.535175,0.57889 0.97542,0.45819 2.34422,1.0629 3.041786,1.34381 0.697566,0.2809 2.400111,1.00672 3.783438,1.61292 1.383327,0.6062 2.744392,1.1022 3.024578,1.1022 0.307175,0 0.612106,0.14658 0.768023,0.36918 0.142223,0.20306 0.878853,0.60804 1.636959,0.89995 0.758107,0.29192 2.163988,0.90035 3.124183,1.35208 0.960196,0.45172 1.806807,0.82131 1.881366,0.82131 0.12427,0 0.899853,0.33732 3.628196,1.57803 0.548083,0.24925 1.605432,0.69541 2.349662,0.99148 0.74423,0.29607 1.926468,0.80729 2.627191,1.13606 1.351569,0.63412 4.141189,1.84379 6.981373,3.02732 0.94668,0.39449 2.21045,0.949593 2.80837,1.233543 0.597901,0.28394 1.434901,0.65536 1.859971,0.82535 0.86307,0.34516 0.88792,0.33951 3.2132,-0.73145 0.69757,-0.32129 1.71674,-0.76659 2.26481,-0.989573 1.6462,-0.66976 6.36804,-2.7151 7.33801,-3.17859 0.49827,-0.23809 2.94426,-1.29861 5.43556,-2.35672 2.49131,-1.05812 5.18935,-2.23422 5.99566,-2.61357 0.8063,-0.37934 1.98853,-0.87265 2.62718,-1.09625 0.63865,-0.2236 1.28347,-0.50941 1.43294,-0.63516 0.14948,-0.12574 1.29094,-0.63825 2.53659,-1.1389 2.59109,-1.04143 6.27882,-2.63842 8.48819,-3.67585 1.57246,-0.73837 2.51452,-0.87767 3.22819,-0.47734 0.60932,0.34181 18.17711,17.840543 18.46506,18.392493 0.14049,0.26931 0.25594,0.73612 0.25656,1.03736 7.9e-4,0.57001 -0.5688,2.87674 -1.36441,5.52199 -0.25477,0.84704 -0.58586,2.31464 -0.73576,3.26134 -0.34029,2.14906 -1.02067,5.48537 -1.79203,8.78748 -0.32589,1.39513 -0.73288,3.14809 -0.90441,3.89549 -0.7265,3.16554 -0.89964,3.38907 -5.05494,6.52645 -2.43634,1.83951 -3.76842,2.8493 -9.0951,6.89463 -5.73776,4.3575 -7.07665,5.39582 -7.29129,5.65445 -0.24711,0.29775 -0.34135,0.11206 2.64087,5.20329 0.84639,1.44495 1.84486,3.15715 2.21882,3.80488 2.75283,4.76821 3.62018,6.16761 4.29043,6.92226 1.20196,1.35336 1.22875,2.47212 0.0884,3.69252 -0.27141,0.29047 -3.26087,2.97411 -6.64323,5.96368 -3.38237,2.989548 -6.64727,5.883978 -7.25535,6.432058 -0.60807,0.5481 -2.03132,1.81186 -3.16278,2.80838 -1.13145,0.99652 -2.18563,1.96889 -2.34264,2.16083 -1.16576,1.42522 -1.57851,1.76013 -2.279,1.84924 -0.79997,0.10174 -0.74273,0.11929 -10.41763,-3.19403 -3.23869,-1.10914 -6.64228,-2.26062 -7.56354,-2.55886 -1.05715,-0.34224 -1.7422,-0.6678 -1.85715,-0.88259 -0.10017,-0.18718 -0.18213,-1.34927 -0.18213,-2.58242 0,-2.317478 0.0602,-2.538868 0.83072,-3.054888 0.20777,-0.13914 0.7785,-0.59785 1.2683,-1.01933 0.48979,-0.42149 1.46126,-1.22247 2.15883,-1.77997 0.69757,-0.55749 1.6352,-1.32764 2.08363,-1.71144 0.44843,-0.3838 1.67143,-1.4004 2.71777,-2.25913 1.04636,-0.85871 2.43242,-2.00214 3.08016,-2.54094 0.64774,-0.5388 1.78921,-1.48515 2.5366,-2.10299 0.74738,-0.61783 1.38282,-1.18296 1.41207,-1.25583 0.0504,-0.12556 -0.19092,-0.69682 -1.45197,-3.43707 -0.2981,-0.64773 -0.7032,-1.58517 -0.90023,-2.08317 -0.19703,-0.49801 -0.41969,-0.98721 -0.4948,-1.08711 -0.0751,-0.0999 -0.48683,-0.99697 -0.91493,-1.99349 -0.4281,-0.99652 -1.01215,-2.31804 -1.29789,-2.93671 -0.28573,-0.61867 -0.51952,-1.1659 -0.51952,-1.21606 0,-0.0502 -0.36206,-0.86608 -0.80458,-1.81314 -0.74053,-1.58484 -0.78558,-1.76207 -0.56595,-2.22645 0.13123,-0.27749 0.50359,-1.11603 0.82744,-1.86343 0.32386,-0.74738 0.81581,-1.84809 1.09322,-2.44599 0.27742,-0.59792 0.72287,-1.61708 0.98989,-2.26482 0.26703,-0.64773 0.75548,-1.74844 1.08542,-2.446 0.32997,-0.69756 0.90284,-1.96133 1.27306,-2.80837 0.37023,-0.84704 0.80637,-1.68018 0.96921,-1.85144 0.201,-0.21136 0.93615,-0.40531 2.28911,-0.60391 3.95179,-0.58009 4.36831,-0.63872 5.70734,-0.8034 0.74738,-0.0919 1.84808,-0.29891 2.446,-0.46 0.5979,-0.1611 1.31232,-0.33731 1.58759,-0.3916 0.27526,-0.0542 0.54506,-0.17082 0.59954,-0.25899 0.0545,-0.0882 0.26137,-0.16029 0.45974,-0.16029 0.52134,0 1.29546,-0.43563 3.24164,-1.8242 1.70978,-1.21989 3.07098,-2.54137 7.06628,-6.86016 1.14597,-1.23876 2.34856,-2.49524 2.67243,-2.79219 0.94375,-0.86531 0.74331,-1.33751 -0.44136,-1.03978 -0.98237,0.24689 -4.73977,1.55687 -4.88655,1.70366 -0.0675,0.0676 -0.29669,0.12274 -0.50927,0.12274 -0.21259,0 -0.46399,0.0686 -0.55866,0.15246 -0.0947,0.0839 -0.78362,0.3385 -1.53101,0.56585 -1.95603,0.59502 -2.91463,0.91601 -3.53312,1.18306 -0.29895,0.12908 -1.80732,0.64652 -3.35192,1.14985 -5.38131,1.75358 -12.36007,4.18458 -12.61123,4.39302 -0.1391,0.11545 -0.25292,0.2755 -0.25292,0.35568 0,0.0802 -0.28537,0.76356 -0.63415,1.51866 -0.34878,0.75508 -0.63415,1.41107 -0.63415,1.45775 0,0.0467 -0.20383,0.53553 -0.45296,1.08635 -0.24913,0.5508 -0.6568,1.45214 -0.90593,2.00294 -0.24914,0.55081 -0.45297,1.03405 -0.45297,1.07388 0,0.0598 -0.57296,1.35286 -1.44887,3.26962 -0.55127,1.20635 -2.35602,5.38157 -2.35602,5.45056 0,0.0455 -0.31746,0.75386 -0.70545,1.57399 -1.26757,2.67924 -1.25635,2.51648 -0.30608,4.44164 0.4567,0.9252 0.83035,1.71719 0.83035,1.75997 0,0.0427 0.44409,1.00865 0.98688,2.14637 1.02386,2.14607 1.92636,4.07666 2.85065,6.09791 0.2962,0.64775 0.74315,1.6005 0.99322,2.11723 0.55379,1.14426 0.50856,1.46434 -0.28217,1.99721 l -0.61269,0.4129 -12.43139,-3.6e-4 c -11.945162,-3.7e-4 -12.453784,-0.014 -13.004057,-0.34872 -0.917926,-0.5584 -0.900528,-0.86169 0.179034,-3.12196 0.539253,-1.12906 1.126608,-2.37896 1.305222,-2.77756 0.178613,-0.39861 0.628775,-1.37702 1.000354,-2.17422 1.813979,-3.89181 2.235246,-4.79854 2.735855,-5.88853 0.297497,-0.64774 0.616828,-1.31928 0.709625,-1.49231 0.259178,-0.48326 0.210364,-0.76244 -0.348096,-1.99097 -0.583578,-1.28378 -1.526081,-3.41059 -2.491069,-5.62128 -0.35887,-0.82212 -0.796496,-1.82091 -0.972499,-2.21951 -0.176005,-0.39861 -0.445988,-1.01012 -0.599961,-1.3589 -0.153964,-0.34877 -0.531677,-1.18654 -0.839353,-1.86168 -0.307667,-0.67513 -0.559405,-1.2603 -0.559405,-1.30036 0,-0.0401 -0.269761,-0.66989 -0.599483,-1.39964 -0.329715,-0.72975 -0.748944,-1.69373 -0.931619,-2.14215 -0.676718,-1.66119 -1.375386,-3.06348 -1.594834,-3.20096 -8.920999,-2.68812 -18.512875,-6.80227 -26.84376,-9.14266 -1.078435,-0.12154 -1.308633,0.38605 -0.483139,0.92894 0.08509,0 1.28484,1.24322 2.666104,2.76272 2.166201,2.49231 4.68103,4.90328 7.058142,6.93048 0.28954,0.249 0.581769,0.45284 0.649386,0.45296 0.06759,1.2e-4 0.230689,0.10489 0.362369,0.23281 0.441188,0.42862 1.930649,1.21689 2.299333,1.21689 0.200589,0 0.409286,0.0721 0.463774,0.16029 0.0545,0.0882 0.324288,0.20471 0.599548,0.25899 0.275259,0.0543 0.989675,0.22998 1.587589,0.39044 0.597913,0.16046 1.73938,0.37111 2.536591,0.46815 0.797218,0.097 1.938685,0.24783 2.53659,0.33514 0.597914,0.0873 1.943215,0.28305 2.98956,0.43498 1.046345,0.15195 2.028945,0.32654 2.183559,0.38802 1.166743,1.58884 1.899597,3.71488 2.617846,5.25455 0.448438,0.95972 0.815337,1.78896 0.815337,1.84276 0,0.0538 0.273689,0.68256 0.608196,1.39724 1.078483,2.30422 1.566027,3.39075 1.566027,3.49003 0,0.0534 0.251792,0.61914 0.559547,1.25724 l 0.559547,1.16019 -0.559547,1.18429 c -0.307755,0.65136 -0.559547,1.21888 -0.559547,1.26116 0,0.0728 -0.771371,1.78456 -1.735708,3.85172 -0.241185,0.517 -0.438515,0.98271 -0.438515,1.03488 0,0.0522 -0.366899,0.8801 -0.815337,1.83982 -0.448432,0.95971 -0.815331,1.78537 -0.815331,1.83477 0,0.0494 -0.233561,0.59223 -0.519031,1.20626 -0.28547,0.61403 -0.700247,1.52409 -0.921725,2.02234 -0.221487,0.49826 -0.517889,1.12235 -0.658676,1.38684 -0.140788,0.26451 -0.254244,0.54988 -0.252134,0.63416 0.0023,0.0843 0.665062,0.68319 1.473221,1.33093 0.808158,0.64774 1.853408,1.50384 2.322784,1.90245 0.469367,0.3986 1.85378,1.54007 3.076462,2.53659 1.22269,0.99652 2.610023,2.13799 3.082969,2.53659 0.472938,0.39861 1.412648,1.17318 2.088224,1.72126 0.67559,0.54808 1.60451,1.32838 2.06431,1.73401 0.45978,0.40562 1.10094,0.92074 1.424811,1.14474 l 0.58885,0.40726 v 2.502068 c 0,1.86604 -0.0615,2.55312 -0.24197,2.7029 -0.22235,0.18453 -2.221461,0.89815 -6.914837,2.46841 -0.996515,0.3334 -4.116429,1.38755 -6.933135,2.34259 -4.80219,1.62821 -5.706573,1.85606 -6.383972,1.60843 z M 14.670352,55.853362 C 6.7526948,45.971602 0.15892489,37.704392 0.01753229,37.481792 -0.22839801,37.094612 0.18796929,36.543752 9.6156878,24.783019 22.736232,8.4156592 26.222695,4.0615795 26.641496,3.5203295 c 0.192767,-0.24913 0.861744,-1.0842 1.486615,-1.85571 l 1.136135,-1.40273999 7.202112,-0.002 c 6.739147,-0.002 7.202073,0.019 7.201494,0.31563 -3.57e-4,0.17439 -4.246666,5.61673999 -9.436291,12.09410949 -5.189625,6.47737 -11.656455,14.549173 -14.370733,17.937343 -2.714279,3.38816 -4.992899,6.25812 -5.063601,6.3777 -0.114595,0.19378 0.574169,1.12867 3.510687,4.76518 1.66706,2.06445 4.04592,5.03034 4.402416,5.48879 0.216488,0.27842 0.678984,0.85524 1.027766,1.28181 0.79632,0.97396 4.3497,5.43663 5.435557,6.82649 0.448432,0.57398 3.893217,4.87796 7.655074,9.5644 3.76186,4.68645 6.839744,8.608 6.839744,8.71456 0,0.13433 -2.238856,0.19374 -7.301189,0.19374 h -7.301188 z m 146.587318,17.77308 c 0,-0.10656 3.07788,-4.02811 6.83974,-8.71454 3.76186,-4.68644 7.20664,-8.99042 7.65508,-9.5644 1.08585,-1.38986 4.63923,-5.85253 5.43555,-6.82649 0.34879,-0.42659 0.81128,-1.0034 1.02777,-1.2818 0.35648,-0.45847 2.73536,-3.42436 4.40241,-5.4888 2.93651,-3.63651 3.62528,-4.5714 3.51069,-4.7652 -0.0707,-0.11956 -2.34931,-2.98953 -5.06359,-6.37769 -2.71429,-3.38817 -9.18111,-11.459973 -14.37074,-17.937343 -5.18963,-6.4773695 -9.43596,-11.91971949 -9.4363,-12.09410949 -5.1e-4,-0.29669 0.46236,-0.31698 7.2015,-0.31563 l 7.20211,0.002 1.13615,1.40273999 c 0.62487,0.77151 1.29384,1.60657 1.4866,1.85571 0.41881,0.54125 3.90527,4.8953097 17.02581,21.2626895 9.42772,11.760713 9.84408,12.311593 9.59816,12.698763 -0.1414,0.22261 -6.73516,8.48982 -14.65282,18.37158 l -14.39575,17.96682 h -7.30118 c -5.06233,0 -7.30119,-0.0594 -7.30119,-0.19374 z"
       id="path24"
       sodipodi:nodetypes="ssssscssssssssssssssscsssssssssssssssssssssssssssssssssssssssssssssssssssssscsssssssssssssssssssssssssssssssssssssssssssssssssssssssssssssssssssssssssscssssssssssssssscccccsssssssssccsssscssssssssssssssssscsssssssssccccsssssssssscsssssssssscscssssscsss" />
  </g>
</svg>
